<svg fill="none" height="140" width="135" xmlns="http://www.w3.org/2000/svg">
    <path clip-rule="evenodd"
          d="M22.6 10.855C35.219 4.469 50.757.079 67.467.079c15.855 0 31.937 4.189 44.596 10.595a4.538 4.538 0 0 1-4.098 8.097C96.523 12.98 81.84 9.153 67.466 9.153c-15.143 0-29.287 3.987-40.769 9.798a4.537 4.537 0 0 1-4.097-8.096zm7.89 13.834c10.952-5.113 25.019-7.826 36.924-7.826 11.925 0 25.642 2.72 36.578 7.826 12.177 5.684 22.379 13.94 29.376 23.658a4.537 4.537 0 0 1-7.364 5.302c-5.997-8.33-14.926-15.64-25.85-20.738-9.607-4.485-21.993-6.974-32.74-6.974-10.765 0-23.494 2.496-33.086 6.974-10.453 4.879-19.82 12.73-25.66 20.905a4.537 4.537 0 0 1-7.383-5.275c6.793-9.51 17.408-18.346 29.205-23.853zm36.346 8.598c23.37-.225 43.761 11.809 54.109 29.097 5.432 9.074 7.322 18.197 7.322 25.973 0 13.242-12.09 21.501-22.946 21.501-5.436 0-11.212-1.454-15.79-4.944-4.717-3.597-7.834-9.123-8.055-16.42-.133-4.37-2.131-7.263-4.874-9.2-2.894-2.045-6.638-3.004-9.722-3.004-8.39 0-14.232 6.173-14.232 12.067 0 4.914 1.542 11.814 3.577 16.381 2.063 4.629 5.762 10.019 9.368 13.282l.043.039.042.04c5.903 5.623 13.283 10.632 24.107 13.097a4.537 4.537 0 0 1-2.015 8.847c-12.732-2.899-21.51-8.867-28.31-15.335-4.671-4.243-9.041-10.706-11.523-16.277-2.517-5.65-4.363-13.803-4.363-20.074 0-11.793 10.84-21.141 23.306-21.141 4.676 0 10.317 1.387 14.958 4.667 4.792 3.386 8.479 8.794 8.707 16.336.14 4.615 1.986 7.571 4.488 9.48 2.641 2.013 6.341 3.086 10.288 3.086 7.205 0 13.872-5.457 13.872-12.428 0-6.301-1.526-13.783-6.033-21.312-8.649-14.448-26-24.88-46.236-24.685-17.56.169-36.233 8.462-45.776 24.494-4.068 6.834-6.109 14.644-5.861 22.81.34 11.237 1.979 15.953 4.943 23.8a4.536 4.536 0 0 1-2.64 5.847 4.536 4.536 0 0 1-5.848-2.64c-3.172-8.396-5.144-14.148-5.525-26.733-.3-9.882 2.178-19.398 7.134-27.725 11.512-19.34 33.506-28.734 53.485-28.926zM24.985 87.592c.027-20.917 20.157-37.34 41.895-37.34 21.618 0 42.617 14.885 42.617 38.646a4.537 4.537 0 1 1-9.073 0c0-17.387-15.457-29.573-33.544-29.573-17.952 0-32.822 13.513-32.822 28.31v.083c-.151 8.257 1.163 16.136 5.461 24.567 4.386 8.602 9.657 14.445 14.477 18.688A4.537 4.537 0 1 1 48 137.784c-5.509-4.85-11.565-11.572-16.565-21.378-5.08-9.964-6.619-19.35-6.45-28.814zM66.88 83.82a4.537 4.537 0 0 1 4.537 4.537c0 4.9 1.344 9.542 3.904 13.973 2.463 4.264 5.668 7.34 10.064 10.006 6.4 3.49 10.792 4.683 17.474 4.512h.032l.031-.001c2.639-.031 5.734-.249 8.177-.675a4.537 4.537 0 0 1 1.559 8.939c-3.056.533-6.651.773-9.598.809-8.526.213-14.492-1.5-22.115-5.67l-.083-.046-.082-.049c-5.549-3.347-9.961-7.477-13.317-13.286-3.273-5.668-5.12-11.861-5.12-18.512a4.537 4.537 0 0 1 4.537-4.537z"
          fill="#f04405" fill-rule="evenodd"/>
</svg>